<mxfile host="app.diagrams.net" agent="Mozilla/5.0 (Windows NT 10.0; Win64; x64) AppleWebKit/537.36 (KHTML, like Gecko) Chrome/134.0.0.0 Safari/537.36" version="26.1.3">
  <diagram name="Страница — 1" id="snhgsBZpk8pAmOAmug2u">
    <mxGraphModel dx="1877" dy="530" grid="1" gridSize="10" guides="1" tooltips="1" connect="1" arrows="1" fold="1" page="1" pageScale="1" pageWidth="827" pageHeight="1169" math="0" shadow="0">
      <root>
        <mxCell id="0" />
        <mxCell id="1" parent="0" />
        <mxCell id="fuSRoAt_FUIpCej6jJqe-1" value="Пользователь" style="shape=umlActor;verticalLabelPosition=bottom;verticalAlign=top;html=1;" parent="1" vertex="1">
          <mxGeometry y="405" width="30" height="60" as="geometry" />
        </mxCell>
        <mxCell id="fuSRoAt_FUIpCej6jJqe-4" value="Авторизоваться в системе" style="ellipse;whiteSpace=wrap;html=1;" parent="1" vertex="1">
          <mxGeometry x="70" y="400" width="140" height="70" as="geometry" />
        </mxCell>
        <mxCell id="fuSRoAt_FUIpCej6jJqe-6" value="Получить анализ своего аккаунта" style="ellipse;whiteSpace=wrap;html=1;" parent="1" vertex="1">
          <mxGeometry x="280" y="260" width="140" height="70" as="geometry" />
        </mxCell>
        <mxCell id="fuSRoAt_FUIpCej6jJqe-8" value="" style="endArrow=none;dashed=1;endFill=0;endSize=12;html=1;rounded=0;exitX=1;exitY=0.5;exitDx=0;exitDy=0;entryX=0;entryY=0.5;entryDx=0;entryDy=0;startArrow=classic;startFill=1;" parent="1" source="fuSRoAt_FUIpCej6jJqe-6" target="fuSRoAt_FUIpCej6jJqe-9" edge="1">
          <mxGeometry width="160" relative="1" as="geometry">
            <mxPoint x="510" y="370" as="sourcePoint" />
            <mxPoint x="510" y="280" as="targetPoint" />
          </mxGeometry>
        </mxCell>
        <mxCell id="fuSRoAt_FUIpCej6jJqe-27" value="&quot;include&quot;" style="edgeLabel;html=1;align=center;verticalAlign=middle;resizable=0;points=[];" parent="fuSRoAt_FUIpCej6jJqe-8" vertex="1" connectable="0">
          <mxGeometry x="0.0673" relative="1" as="geometry">
            <mxPoint x="-1" as="offset" />
          </mxGeometry>
        </mxCell>
        <mxCell id="fuSRoAt_FUIpCej6jJqe-9" value="Получить статистику по героям" style="ellipse;whiteSpace=wrap;html=1;" parent="1" vertex="1">
          <mxGeometry x="510" y="260" width="140" height="70" as="geometry" />
        </mxCell>
        <mxCell id="fuSRoAt_FUIpCej6jJqe-11" value="" style="endArrow=none;dashed=1;endFill=0;endSize=12;html=1;rounded=0;exitX=1;exitY=0.5;exitDx=0;exitDy=0;entryX=0;entryY=0.5;entryDx=0;entryDy=0;startArrow=classic;startFill=1;" parent="1" source="fuSRoAt_FUIpCej6jJqe-6" target="fuSRoAt_FUIpCej6jJqe-12" edge="1">
          <mxGeometry width="160" relative="1" as="geometry">
            <mxPoint x="450" y="335" as="sourcePoint" />
            <mxPoint x="520" y="290" as="targetPoint" />
          </mxGeometry>
        </mxCell>
        <mxCell id="fuSRoAt_FUIpCej6jJqe-28" value="&quot;include&quot;" style="edgeLabel;html=1;align=center;verticalAlign=middle;resizable=0;points=[];" parent="fuSRoAt_FUIpCej6jJqe-11" vertex="1" connectable="0">
          <mxGeometry x="0.2" y="3" relative="1" as="geometry">
            <mxPoint as="offset" />
          </mxGeometry>
        </mxCell>
        <mxCell id="fuSRoAt_FUIpCej6jJqe-12" value="Получить статистику по игровым показателям" style="ellipse;whiteSpace=wrap;html=1;" parent="1" vertex="1">
          <mxGeometry x="510" y="350" width="140" height="70" as="geometry" />
        </mxCell>
        <mxCell id="fuSRoAt_FUIpCej6jJqe-15" value="" style="endArrow=none;dashed=1;endFill=0;endSize=12;html=1;rounded=0;exitX=1;exitY=0.5;exitDx=0;exitDy=0;entryX=0;entryY=0.5;entryDx=0;entryDy=0;startArrow=classic;startFill=1;" parent="1" source="fuSRoAt_FUIpCej6jJqe-6" target="fuSRoAt_FUIpCej6jJqe-16" edge="1">
          <mxGeometry width="160" relative="1" as="geometry">
            <mxPoint x="440" y="380" as="sourcePoint" />
            <mxPoint x="520" y="170" as="targetPoint" />
          </mxGeometry>
        </mxCell>
        <mxCell id="fuSRoAt_FUIpCej6jJqe-26" value="&quot;include&quot;" style="edgeLabel;html=1;align=center;verticalAlign=middle;resizable=0;points=[];" parent="fuSRoAt_FUIpCej6jJqe-15" vertex="1" connectable="0">
          <mxGeometry x="0.1443" y="1" relative="1" as="geometry">
            <mxPoint as="offset" />
          </mxGeometry>
        </mxCell>
        <mxCell id="fuSRoAt_FUIpCej6jJqe-16" value="Анализ данных на основании средних показателей других игроков" style="ellipse;whiteSpace=wrap;html=1;" parent="1" vertex="1">
          <mxGeometry x="510" y="170" width="140" height="70" as="geometry" />
        </mxCell>
        <mxCell id="fuSRoAt_FUIpCej6jJqe-17" value="" style="endArrow=none;dashed=1;endFill=0;endSize=12;html=1;rounded=0;exitX=1;exitY=0.5;exitDx=0;exitDy=0;entryX=0;entryY=0.5;entryDx=0;entryDy=0;startArrow=classic;startFill=1;" parent="1" source="fuSRoAt_FUIpCej6jJqe-16" target="fuSRoAt_FUIpCej6jJqe-18" edge="1">
          <mxGeometry width="160" relative="1" as="geometry">
            <mxPoint x="650" y="200" as="sourcePoint" />
            <mxPoint x="710" y="205" as="targetPoint" />
          </mxGeometry>
        </mxCell>
        <mxCell id="fuSRoAt_FUIpCej6jJqe-30" value="&quot;include&quot;" style="edgeLabel;html=1;align=center;verticalAlign=middle;resizable=0;points=[];" parent="fuSRoAt_FUIpCej6jJqe-17" vertex="1" connectable="0">
          <mxGeometry x="0.0333" y="1" relative="1" as="geometry">
            <mxPoint as="offset" />
          </mxGeometry>
        </mxCell>
        <mxCell id="fuSRoAt_FUIpCej6jJqe-18" value="Построение графиков для визуального анализа" style="ellipse;whiteSpace=wrap;html=1;" parent="1" vertex="1">
          <mxGeometry x="720" y="170" width="150" height="70" as="geometry" />
        </mxCell>
        <mxCell id="fuSRoAt_FUIpCej6jJqe-21" value="" style="endArrow=none;endFill=0;endSize=24;html=1;rounded=0;entryX=0;entryY=0.5;entryDx=0;entryDy=0;exitX=0.5;exitY=0.5;exitDx=0;exitDy=0;exitPerimeter=0;" parent="1" source="fuSRoAt_FUIpCej6jJqe-1" target="fuSRoAt_FUIpCej6jJqe-4" edge="1">
          <mxGeometry width="160" relative="1" as="geometry">
            <mxPoint x="40" y="435" as="sourcePoint" />
            <mxPoint x="60" y="545" as="targetPoint" />
          </mxGeometry>
        </mxCell>
        <mxCell id="fuSRoAt_FUIpCej6jJqe-23" value="" style="endArrow=none;dashed=1;endFill=0;endSize=12;html=1;rounded=0;exitX=1;exitY=0.5;exitDx=0;exitDy=0;entryX=0;entryY=0.5;entryDx=0;entryDy=0;startArrow=classic;startFill=1;" parent="1" source="fuSRoAt_FUIpCej6jJqe-4" target="fuSRoAt_FUIpCej6jJqe-6" edge="1">
          <mxGeometry width="160" relative="1" as="geometry">
            <mxPoint x="460" y="375" as="sourcePoint" />
            <mxPoint x="530" y="215" as="targetPoint" />
          </mxGeometry>
        </mxCell>
        <mxCell id="fuSRoAt_FUIpCej6jJqe-24" value="&quot;include&quot;" style="edgeLabel;html=1;align=center;verticalAlign=middle;resizable=0;points=[];" parent="fuSRoAt_FUIpCej6jJqe-23" vertex="1" connectable="0">
          <mxGeometry x="-0.2286" y="3" relative="1" as="geometry">
            <mxPoint as="offset" />
          </mxGeometry>
        </mxCell>
        <mxCell id="vKJt2y0oQwFI96h_MIHU-1" value="Получить анализ матча" style="ellipse;whiteSpace=wrap;html=1;" vertex="1" parent="1">
          <mxGeometry x="280" y="560" width="140" height="70" as="geometry" />
        </mxCell>
        <mxCell id="vKJt2y0oQwFI96h_MIHU-2" value="" style="endArrow=none;dashed=1;endFill=0;endSize=12;html=1;rounded=0;exitX=1;exitY=0.5;exitDx=0;exitDy=0;entryX=0;entryY=0.5;entryDx=0;entryDy=0;startArrow=classic;startFill=1;" edge="1" parent="1" source="fuSRoAt_FUIpCej6jJqe-4" target="vKJt2y0oQwFI96h_MIHU-1">
          <mxGeometry width="160" relative="1" as="geometry">
            <mxPoint x="220" y="530" as="sourcePoint" />
            <mxPoint x="290" y="530" as="targetPoint" />
          </mxGeometry>
        </mxCell>
        <mxCell id="vKJt2y0oQwFI96h_MIHU-3" value="&quot;include&quot;" style="edgeLabel;html=1;align=center;verticalAlign=middle;resizable=0;points=[];" vertex="1" connectable="0" parent="vKJt2y0oQwFI96h_MIHU-2">
          <mxGeometry x="-0.2286" y="3" relative="1" as="geometry">
            <mxPoint as="offset" />
          </mxGeometry>
        </mxCell>
        <mxCell id="vKJt2y0oQwFI96h_MIHU-4" value="" style="endArrow=none;dashed=1;endFill=0;endSize=12;html=1;rounded=0;exitX=1;exitY=0.5;exitDx=0;exitDy=0;entryX=0;entryY=0.5;entryDx=0;entryDy=0;startArrow=classic;startFill=1;" edge="1" parent="1" target="vKJt2y0oQwFI96h_MIHU-6" source="vKJt2y0oQwFI96h_MIHU-1">
          <mxGeometry width="160" relative="1" as="geometry">
            <mxPoint x="414" y="455" as="sourcePoint" />
            <mxPoint x="514" y="500" as="targetPoint" />
          </mxGeometry>
        </mxCell>
        <mxCell id="vKJt2y0oQwFI96h_MIHU-5" value="&quot;include&quot;" style="edgeLabel;html=1;align=center;verticalAlign=middle;resizable=0;points=[];" vertex="1" connectable="0" parent="vKJt2y0oQwFI96h_MIHU-4">
          <mxGeometry x="0.2053" y="-4" relative="1" as="geometry">
            <mxPoint as="offset" />
          </mxGeometry>
        </mxCell>
        <mxCell id="vKJt2y0oQwFI96h_MIHU-6" value="Получить советы для улучшения умений" style="ellipse;whiteSpace=wrap;html=1;" vertex="1" parent="1">
          <mxGeometry x="510" y="560" width="140" height="70" as="geometry" />
        </mxCell>
        <mxCell id="vKJt2y0oQwFI96h_MIHU-7" value="Получить статистику по игровым показателям" style="ellipse;whiteSpace=wrap;html=1;" vertex="1" parent="1">
          <mxGeometry x="510" y="470" width="140" height="70" as="geometry" />
        </mxCell>
        <mxCell id="vKJt2y0oQwFI96h_MIHU-8" value="" style="endArrow=none;dashed=1;endFill=0;endSize=12;html=1;rounded=0;exitX=1;exitY=0.5;exitDx=0;exitDy=0;entryX=0;entryY=0.5;entryDx=0;entryDy=0;startArrow=classic;startFill=1;" edge="1" parent="1" source="vKJt2y0oQwFI96h_MIHU-1" target="vKJt2y0oQwFI96h_MIHU-7">
          <mxGeometry width="160" relative="1" as="geometry">
            <mxPoint x="430" y="510" as="sourcePoint" />
            <mxPoint x="520" y="530" as="targetPoint" />
          </mxGeometry>
        </mxCell>
        <mxCell id="vKJt2y0oQwFI96h_MIHU-9" value="&quot;include&quot;" style="edgeLabel;html=1;align=center;verticalAlign=middle;resizable=0;points=[];" vertex="1" connectable="0" parent="vKJt2y0oQwFI96h_MIHU-8">
          <mxGeometry x="0.2" y="3" relative="1" as="geometry">
            <mxPoint as="offset" />
          </mxGeometry>
        </mxCell>
        <mxCell id="vKJt2y0oQwFI96h_MIHU-12" value="" style="endArrow=none;dashed=1;endFill=0;endSize=12;html=1;rounded=0;exitX=1;exitY=0.5;exitDx=0;exitDy=0;entryX=0;entryY=0.5;entryDx=0;entryDy=0;startArrow=classic;startFill=1;" edge="1" parent="1" target="vKJt2y0oQwFI96h_MIHU-14" source="vKJt2y0oQwFI96h_MIHU-1">
          <mxGeometry width="160" relative="1" as="geometry">
            <mxPoint x="420" y="630" as="sourcePoint" />
            <mxPoint x="514" y="585" as="targetPoint" />
          </mxGeometry>
        </mxCell>
        <mxCell id="vKJt2y0oQwFI96h_MIHU-13" value="&quot;include&quot;" style="edgeLabel;html=1;align=center;verticalAlign=middle;resizable=0;points=[];" vertex="1" connectable="0" parent="vKJt2y0oQwFI96h_MIHU-12">
          <mxGeometry x="0.2053" y="-4" relative="1" as="geometry">
            <mxPoint as="offset" />
          </mxGeometry>
        </mxCell>
        <mxCell id="vKJt2y0oQwFI96h_MIHU-14" value="Сравнение показателей со средними на данном рейтинге" style="ellipse;whiteSpace=wrap;html=1;" vertex="1" parent="1">
          <mxGeometry x="510" y="645" width="158.67" height="85" as="geometry" />
        </mxCell>
      </root>
    </mxGraphModel>
  </diagram>
</mxfile>
